<svg xmlns="http://www.w3.org/2000/svg" viewBox="0 0 542.93 562.44"><defs><style>.cls-1{fill:#fff;}</style></defs><g id="Layer_2" data-name="Layer 2"><path class="cls-1" d="M352.93,171.45v1.07c-.9.54-.55,1.42-.55,2.17q0,61.55,0,123.09c0,.66-.33,1.46.56,1.87v.53c-.43.07-.51.38-.59.75a16.76,16.76,0,0,1-19,13c-9.15-1.37-14.73-9.42-14.66-18.38.25-34,.1-68,.1-102,0-5.63,0-5.47-5.6-5.7-2.63-.11-3.13.66-3.13,3.19q.1,148.62.06,297.24c0,1.07,0,2.14,0,3.21-.58,16.48-16.13,27.32-31.08,21.67-9.49-3.59-15-12.06-15-23.21q0-84,0-168c0-2.19,1-5.09-.45-6.36-1.23-1.08-4.07-.18-6.16-.45-2.4-.31-2.65.75-2.64,2.82.07,22.43,0,44.87,0,67.3,0,35.61,0,71.22,0,106.82A22.77,22.77,0,0,1,226.86,514c-11-2.69-17.84-11.6-17.85-23.38l-.15-296.71c0-6,0-5.88-5.86-6-2.23-.06-2.75.54-2.75,2.76.09,23.86.06,47.71.06,71.57,0,11.31.07,22.61,0,33.92-.09,12.14-10.3,20.32-21.54,17.44-6.06-1.54-12.56-7.66-12.52-17.39.13-40,.06-79.94.05-119.91a46.65,46.65,0,0,1,.89-10.07c5.29-24.08,25.09-40.29,49.69-40.4q42.64-.18,85.29,0c23.33.12,42.73,14.93,48.86,37.05C351.8,165.64,352.29,168.56,352.93,171.45Z"/><path class="cls-1" d="M261.77,37.37c1.51,1.14,3.36.6,5,.94a39.17,39.17,0,0,1,.1,76.89c-24.88,5-48.14-15.8-46.34-41.2,1.27-17.8,15.12-33.81,34.3-36.08.42-.05.91,0,1-.55Z"/></g></svg>