<svg xmlns="http://www.w3.org/2000/svg" viewBox="0 0 542.93 562.44"><defs><style>.cls-1{fill:#e44f26;}</style></defs><g id="Layer_2" data-name="Layer 2"><path class="cls-1" d="M210.28,447.72c-.41-1.11-1.53-.93-2.33-1.15-15.5-4.24-27.29-25.39-10.6-41.8,22-21.62,43.64-43.61,65.54-65.32,2-2,1.78-2.89-.08-4.71q-12.9-12.57-25.49-25.44c-1.69-1.73-2.47-1.48-4,.08-10.17,10.32-20.49,20.49-30.68,30.79a25.39,25.39,0,0,1-18.9,7.85c-33.22,0-66.45-.14-99.68,0-20.15.11-28.36-18.45-23.21-33.27,3.38-9.71,11.8-15.45,22.72-15.46q43.64,0,87.26.05a8.2,8.2,0,0,0,6.42-2.73q39.66-39.81,79.45-79.5c.78-.78,1.52-1.6,2.72-2.86H255.6c-24.22,0-48.44-.14-72.67.05-17,.13-23.51-16.32-18-28.22,3.58-7.78,10.08-10.85,18.29-10.86q48.13,0,96.27,0c4.14,0,8.28,0,12.42,0a20.8,20.8,0,0,1,15.56,6.46q28.14,28.28,56.37,56.47a6.17,6.17,0,0,0,4.85,2.05c14.08-.08,28.16-.05,42.24,0,11.65,0,17.42,4.45,20.51,15.71.06.23.39.39.59.58v6.83c-.85.16-.67.93-.84,1.47-3.06,9.65-9.05,14.29-19.18,14.35-17.9.11-35.8,0-53.69,0a20.07,20.07,0,0,1-14.95-6.37c-4.47-4.6-9.11-9-13.56-13.65-1.35-1.41-2.11-1.55-3.58-.06q-16.57,16.79-33.35,33.35c-1.42,1.41-1.51,2.14,0,3.6,7.62,7.45,15.11,15,22.64,22.56,11.42,11.43,11.41,25.73-.05,37.19q-39.06,39-78.1,78.12c-6,6.07-11.85,12.28-20.84,13.83Z"/><path class="cls-1" d="M366.57,207.08a45.47,45.47,0,1,1,45.55-45.18A45.48,45.48,0,0,1,366.57,207.08Z"/></g></svg>